<svg xmlns="http://www.w3.org/2000/svg" xmlns:xlink="http://www.w3.org/1999/xlink" version="1.1" x="0px" y="0px" viewBox="0 0 100 100" enable-background="new 0 0 100 100" xml:space="preserve"><path d="M77.311,31.649c2.186,5.276,2.675,11.425,1.44,17.585c-4.106,0.438-8.234,1.627-12.108,3.572  c0.143-1.424,0.229-2.862,0.229-4.313c0-4.197-0.618-8.305-1.768-12.171C68.936,33.806,73.105,32.202,77.311,31.649z M50,20.492  c7.971,6.072,12.871,16.66,12.871,28.001c0,11.337-4.9,21.923-12.871,27.995c-7.971-6.074-12.87-16.66-12.87-27.995  C37.13,37.153,42.029,26.566,50,20.492z M22.69,31.649c4.206,0.553,8.375,2.157,12.207,4.674c-1.149,3.866-1.768,7.974-1.768,12.17  c0,1.452,0.085,2.891,0.229,4.315c-3.876-1.946-8.004-3.137-12.11-3.574C20.014,43.074,20.504,36.926,22.69,31.649z M22.834,75.262  c-8.006-4.623-13.51-12.357-14.639-20.443c7.565-3.067,17.016-2.17,25.022,2.455c0.325,0.188,0.636,0.39,0.952,0.586  c1.826,8.158,5.996,15.436,11.84,20.512C38.792,80.613,30.201,79.516,22.834,75.262z M77.165,75.262  c-7.366,4.254-15.955,5.351-23.174,3.109c5.845-5.075,10.015-12.354,11.841-20.514c0.314-0.196,0.623-0.396,0.947-0.584  c8.007-4.622,17.458-5.521,25.024-2.454C90.676,62.904,85.174,70.639,77.165,75.262z"/></svg>