<svg xmlns="http://www.w3.org/2000/svg" xmlns:xlink="http://www.w3.org/1999/xlink" version="1.1" x="0px" y="0px" viewBox="0 0 100 100" enable-background="new 0 0 100 100" xml:space="preserve"><g><g><path d="M84.494,32.769c-6.481-1.252-13.045-0.589-18.771,2.029c0.696,2.582,1.063,5.261,1.063,7.998    c0,9.552-4.4,18.414-12.171,24.791c8.304,0.499,16.402-2.143,22.343-8.083C83.942,52.519,86.385,42.546,84.494,32.769z"/><g><path d="M86.757,49.471c-1.496,4.631-4.017,8.841-7.516,12.338c-5.86,5.86-13.905,9.107-22.653,9.107c-0.001,0-0.001,0-0.001,0     c-0.388,0-0.78-0.013-1.172-0.03c6.388,3.98,13.913,5.579,21.388,3.896c9.637-2.168,17.033-9.289,20.663-18.562     C94.298,53.239,90.656,50.938,86.757,49.471z"/><path d="M43.299,70.916c-8.748,0-16.793-3.247-22.654-9.108c-3.498-3.498-6.021-7.706-7.517-12.336     c-3.899,1.467-7.54,3.768-10.707,6.749c3.63,9.272,11.026,16.394,20.663,18.562c7.475,1.683,15,0.084,21.386-3.896     C44.078,70.904,43.687,70.916,43.299,70.916C43.299,70.916,43.299,70.916,43.299,70.916z"/></g><path d="M33.174,42.795c0-2.727,0.362-5.396,1.054-7.969c-5.742-2.642-12.33-3.315-18.837-2.058    c-1.89,9.777,0.553,19.75,7.538,26.734c5.957,5.957,14.084,8.599,22.411,8.079C37.573,61.206,33.174,52.346,33.174,42.795z"/></g><path d="M36.406,42.795c0,9.878,5.324,18.657,13.574,24.235c8.25-5.578,13.574-14.356,13.574-24.235   c0-9.879-5.324-18.657-13.574-24.234C41.73,24.139,36.406,32.916,36.406,42.795z"/></g></svg>