<svg xmlns="http://www.w3.org/2000/svg" xmlns:xlink="http://www.w3.org/1999/xlink" version="1.1" x="0px" y="0px" viewBox="0 0 164 164" enable-background="new 0 0 164 164" xml:space="preserve"><path fill-rule="evenodd" clip-rule="evenodd" d="M72.761,26.875c15.758,0,28.534,5.75,28.534,12.84  c0,7.091-12.776,12.84-28.534,12.84c-15.758,0-28.534-5.749-28.534-12.84C44.227,32.625,57.002,26.875,72.761,26.875L72.761,26.875z   M127.188,66.677c23.435-3.249,24.57-2.344,36.491,18.184C140.027,87.42,138.286,86.607,127.188,66.677L127.188,66.677z   M124.161,64.465c4.71-21.083,3.989-22.754-14.346-35.848C105.313,50.642,105.546,51.997,124.161,64.465L124.161,64.465z   M127.741,63.712c26.635-4.817,28.215-6.461,34.416-34.002C134.534,35.225,133.083,36.152,127.741,63.712L127.741,63.712z   M126.184,88.914c-15.345,12.317-65.067,0.763-82.754-8.142C16.204,84.941,0,93.292,0,107.84c0,14.549,31.938,29.604,71.334,29.604  s71.335-13.254,71.335-29.604C142.669,100.644,136.477,94.045,126.184,88.914L126.184,88.914z M89.854,54.815  c-12.768,3.03-33.855,2.063-46.496-6.004c-9.101-0.059-14.562,4.071-15.574,8.149c-5.481,22.071,91.678,46.196,97.157,24.127  C126.977,72.893,111.815,61.879,89.854,54.815z"/></svg>